<?xml version="1.0" encoding="UTF-8" standalone="no"?>
<!-- Created with Fritzing (http://www.fritzing.org/) -->

<svg
   xmlns:dc="http://purl.org/dc/elements/1.1/"
   xmlns:cc="http://creativecommons.org/ns#"
   xmlns:rdf="http://www.w3.org/1999/02/22-rdf-syntax-ns#"
   xmlns:svg="http://www.w3.org/2000/svg"
   xmlns="http://www.w3.org/2000/svg"
   xmlns:sodipodi="http://sodipodi.sourceforge.net/DTD/sodipodi-0.dtd"
   xmlns:inkscape="http://www.inkscape.org/namespaces/inkscape"
   height="1.4in"
   id="svg2"
   x="0in"
   y="0in"
   version="1.2"
   viewBox="0 0 1155.04 1400"
   width="1.15504in"
   gorn="0"
   inkscape:version="0.91 r"
   sodipodi:docname="prefix_lm298_0000_afb635ae7448d3998c79922e514af171_1_breadboard.svg">
  <sodipodi:namedview
     pagecolor="#ffffff"
     bordercolor="#666666"
     borderopacity="1"
     objecttolerance="10"
     gridtolerance="10"
     guidetolerance="10"
     inkscape:pageopacity="0"
     inkscape:pageshadow="2"
     inkscape:window-width="1301"
     inkscape:window-height="744"
     id="namedview127"
     showgrid="false"
     inkscape:zoom="3.7460318"
     inkscape:cx="38.796567"
     inkscape:cy="62.111363"
     inkscape:window-x="65"
     inkscape:window-y="24"
     inkscape:window-maximized="1"
     inkscape:current-layer="g18" />
  <metadata
     id="metadata419">
    <rdf:RDF>
      <cc:Work
         rdf:about="">
        <dc:format>image/svg+xml</dc:format>
        <dc:type
           rdf:resource="http://purl.org/dc/dcmitype/StillImage" />
      </cc:Work>
    </rdf:RDF>
  </metadata>
  <defs
     id="defs417" />
  <desc
     id="desc4">
    <referenceFile>sparkfun-poweric_multiwatt15_breadboard.svg</referenceFile>
  </desc>
  <desc
     id="desc6">Fritzing breadboard generated by brd2svg</desc>
  <g
     id="breadboard"
     gorn="0.4">
    <g
       id="icon"
       gorn="0.4.0">
      <path
         id="path10"
         fill="#1F7A34"
         gorn="0.4.0.0"
         stroke="none"
         d="M0,0L0,670A30,30 0 0 1 0,730L0,1400L1155.04,1400L1155.04,0L0,0z"
         stroke-width="0" />
      <g
         transform="translate(100,163.23)"
         id="g10">
        <g
           id="g12">
          <g
             id="g14"
             gorn="0.4.0.1.0.0">
            <g
               id="g16"
               gorn="0.4.0.1.0.0.0">
              <g
                 id="g18"
                 gorn="0.4.0.1.0.0.0.0">
                <path
                   id="path18"
                   gorn="0.4.0.1.0.0.0.0.0"
                   d="m 451.22204,109.736 c 0,24.3611 11.8577,44.0833 26.52592,44.0833 14.66821,0 26.54041,-19.7222 26.54041,-44.0833 l 0,22.0417 c 0,24.3611 -11.8722,44.0833 -26.54041,44.0833 -14.66822,0 -26.52592,-19.7222 -26.52592,-44.0833 l 0,-22.0417 z"
                   inkscape:connector-curvature="0"
                   style="fill:#e6e6e6" />
                <g
                   id="g20"
                   gorn="0.4.0.1.0.0.0.0.1"
                   transform="matrix(0.52153645,0,0,1,228.56926,0)">
                  <path
                     id="path22"
                     gorn="0.4.0.1.0.0.0.0.1.0"
                     d="M 914.597,0 40.8194,0 0.375,107.264 l 0,306.583 954.667,0 0,-306.583 L 914.597,0 Z M 477.778,175.861 c -28.125,0 -50.8611,-19.7222 -50.8611,-44.0833 0,-24.3333 22.7361,-44.0833 50.8611,-44.0833 28.125,0 50.8889,19.75 50.8889,44.0833 10e-5,24.3613 -22.7639,44.0833 -50.8889,44.0833 z"
                     inkscape:connector-curvature="0"
                     style="fill:#e6e6e6" />
                </g>
                <g
                   id="g24"
                   gorn="0.4.0.1.0.0.0.0.2"
                   transform="matrix(0.52153645,0,0,1,228.56926,0)">
                  <path
                     id="path26"
                     gorn="0.4.0.1.0.0.0.0.2.0"
                     d="m 914.597,52.6806 -873.7776,0 -40.4444,107.292 0,306.583 954.667,0 0,-306.5836 L 914.597,52.6806 Z M 477.778,175.861 c -28.125,0 -50.8611,-19.7222 -50.8611,-44.0833 0,-24.3333 22.7361,-44.0833 50.8611,-44.0833 28.125,0 50.8889,19.75 50.8889,44.0833 10e-5,24.3613 -22.7639,44.0833 -50.8889,44.0833 z"
                     inkscape:connector-curvature="0"
                     style="fill:#cccccc" />
                </g>
                <rect
                   height="53.25"
                   id="rect28"
                   x="228.76483"
                   y="286.54199"
                   width="497.89365"
                   gorn="0.4.0.1.0.0.0.0.3"
                   style="fill:#333333" />
                <rect
                   height="302.22198"
                   id="rect30"
                   x="228.76483"
                   y="413.84698"
                   width="497.89365"
                   gorn="0.4.0.1.0.0.0.0.4" />
                <path
                   id="path32"
                   gorn="0.4.0.1.0.0.0.0.5"
                   d="m 692.45403,561.389 c 0,-36.2361 15.30564,-65.625 34.21133,-65.625 l 0,-155.972 -497.90052,0 0,155.972 0,0 c 18.89844,0 34.21858,29.375 34.21858,65.625 0,36.2083 -15.31289,65.5972 -34.21858,65.5972 l 0,0 0,123.042 497.89364,0 0,-123.042 c -18.8984,-2e-4 -34.20445,-29.3892 -34.20445,-65.5972 z"
                   inkscape:connector-curvature="0"
                   style="fill:#1a1a1a" />
                <g
                   transform="translate(237.05272,0)"
                   id="g28">
                  <g
                     id="g30">
                    <g
                       id="g34"
                       gorn="0.4.0.1.0.0.0.0.6.0.0">
                      <g
                         id="g86"
                         gorn="0.4.0.1.0.0.0.0.6.0.0.0">
                        <rect
                           height="105.167"
                           id="rect88"
                           x="267.681"
                           y="716.06897"
                           style="fill:#cccccc"
                           width="42.125"
                           gorn="0.4.0.1.0.0.0.0.6.0.0.0.0" />
                        <rect
                           height="44.430599"
                           id="rect90"
                           x="267.681"
                           y="821.23602"
                           style="fill:#e6e6e6"
                           width="42.125"
                           gorn="0.4.0.1.0.0.0.0.6.0.0.0.1" />
                        <rect
                           height="17.2222"
                           id="rect92"
                           x="267.681"
                           y="716.06897"
                           style="opacity:0.2"
                           width="42.125"
                           gorn="0.4.0.1.0.0.0.0.6.0.0.0.2" />
                        <polygon
                           id="polygon94"
                           style="fill:#e6e6e6"
                           gorn="0.4.0.1.0.0.0.0.6.0.0.0.3"
                           points="267.681,865.667 274.736,895.208 302.75,895.208 309.806,865.667 " />
                      </g>
                      <g
                         id="g96"
                         gorn="0.4.0.1.0.0.0.0.6.0.0.1">
                        <rect
                           height="105.167"
                           id="rect98"
                           x="167.66701"
                           y="716.06897"
                           style="fill:#cccccc"
                           width="42.125"
                           gorn="0.4.0.1.0.0.0.0.6.0.0.1.0" />
                        <rect
                           height="44.430599"
                           id="rect100"
                           x="167.66701"
                           y="821.23602"
                           style="fill:#e6e6e6"
                           width="42.125"
                           gorn="0.4.0.1.0.0.0.0.6.0.0.1.1" />
                        <rect
                           height="17.2222"
                           id="rect102"
                           x="167.66701"
                           y="716.06897"
                           style="opacity:0.2"
                           width="42.125"
                           gorn="0.4.0.1.0.0.0.0.6.0.0.1.2" />
                        <polygon
                           id="polygon104"
                           style="fill:#e6e6e6"
                           gorn="0.4.0.1.0.0.0.0.6.0.0.1.3"
                           points="167.667,865.667 174.722,895.208 202.736,895.208 209.792,865.667 " />
                      </g>
                    </g>
                  </g>
                </g>
                <g
                   transform="translate(237.05272,0)"
                   id="g43">
                  <g
                     id="g45">
                    <g
                       id="g106"
                       gorn="0.4.0.1.0.0.0.0.7.0.0">
                      <g
                         id="g158"
                         gorn="0.4.0.1.0.0.0.0.7.0.0.0">
                        <rect
                           height="230.58299"
                           id="rect160"
                           x="318.27802"
                           y="716.06897"
                           style="fill:#cccccc"
                           width="42.125"
                           gorn="0.4.0.1.0.0.0.0.7.0.0.0.0" />
                        <rect
                           height="60.472198"
                           id="rect162"
                           x="318.27802"
                           y="715.27802"
                           style="opacity:0.2"
                           width="42.125"
                           gorn="0.4.0.1.0.0.0.0.7.0.0.0.1" />
                        <rect
                           height="97.388901"
                           id="rect164"
                           x="318.27802"
                           y="946.63898"
                           style="fill:#e6e6e6"
                           width="42.125"
                           gorn="0.4.0.1.0.0.0.0.7.0.0.0.2" />
                        <polygon
                           id="polygon166"
                           style="fill:#e6e6e6"
                           gorn="0.4.0.1.0.0.0.0.7.0.0.0.3"
                           points="353.347,1073.54 360.403,1044.03 318.278,1044.03 325.319,1073.54 " />
                      </g>
                      <g
                         id="g168"
                         gorn="0.4.0.1.0.0.0.0.7.0.0.1">
                        <rect
                           height="230.58299"
                           id="rect170"
                           x="218.25"
                           y="716.06897"
                           style="fill:#cccccc"
                           width="42.125"
                           gorn="0.4.0.1.0.0.0.0.7.0.0.1.0" />
                        <rect
                           height="60.472198"
                           id="rect172"
                           x="218.25"
                           y="715.27802"
                           style="opacity:0.2"
                           width="42.125"
                           gorn="0.4.0.1.0.0.0.0.7.0.0.1.1" />
                        <rect
                           height="97.388901"
                           id="rect174"
                           x="218.25"
                           y="946.63898"
                           style="fill:#e6e6e6"
                           width="42.125"
                           gorn="0.4.0.1.0.0.0.0.7.0.0.1.2" />
                        <polygon
                           id="polygon176"
                           style="fill:#e6e6e6"
                           gorn="0.4.0.1.0.0.0.0.7.0.0.1.3"
                           points="253.333,1073.54 260.389,1044.03 218.25,1044.03 225.306,1073.54 " />
                      </g>
                      <g
                         id="g178"
                         gorn="0.4.0.1.0.0.0.0.7.0.0.2">
                        <rect
                           height="230.58299"
                           id="rect180"
                           x="118.264"
                           y="716.06897"
                           style="fill:#cccccc"
                           width="42.125"
                           gorn="0.4.0.1.0.0.0.0.7.0.0.2.0" />
                        <rect
                           height="60.472198"
                           id="rect182"
                           x="118.264"
                           y="715.27802"
                           style="opacity:0.2"
                           width="42.125"
                           gorn="0.4.0.1.0.0.0.0.7.0.0.2.1" />
                        <rect
                           height="97.388901"
                           id="rect184"
                           x="118.264"
                           y="946.63898"
                           style="fill:#e6e6e6"
                           width="42.125"
                           gorn="0.4.0.1.0.0.0.0.7.0.0.2.2" />
                        <polygon
                           id="polygon186"
                           style="fill:#e6e6e6"
                           gorn="0.4.0.1.0.0.0.0.7.0.0.2.3"
                           points="153.347,1073.54 160.389,1044.03 118.264,1044.03 125.319,1073.54 " />
                      </g>
                    </g>
                  </g>
                </g>
              </g>
              <polygon
                 id="polygon188"
                 gorn="0.4.0.1.0.0.0.1"
                 points="40.8194,20.8333 914.597,20.8333 955.042,128.097 955.042,107.264 914.597,0 40.8194,0 0.375,107.264 0.375,128.097 "
                 transform="matrix(0.52153645,0,0,1,228.56926,0)"
                 style="opacity:0.2;fill:#ffffff" />
            </g>
          </g>
        </g>
      </g>
    </g>
    <g
       transform="translate(460.4731,1334.05)"
       id="g64">
      <g
         id="g66">
        <g
           id="g190"
           gorn="0.4.1.0.0">
          <g
             id="g192"
             gorn="0.4.1.0.0.0">
            <rect
               height="31.9"
               x="0"
               y="0"
               style="fill:#8d8c8c"
               width="31.93"
               id="rect70" />
            <rect
               height="16.415199"
               id="connector0pin"
               x="7.7915301"
               y="7.7354398"
               style="fill:#8c8663"
               width="16.444201"
               gorn="0.4.1.0.0.0.1" />
            <polygon
               id="polygon197"
               style="fill:#b8af82"
               gorn="0.4.1.0.0.0.2"
               points="7.79153,24.1368 7.79153,6.97162 0,0 0,31.9 " />
            <polygon
               id="polygon199"
               style="fill:#80795b"
               gorn="0.4.1.0.0.0.3"
               points="7.90264,7.76321 0,0 31.93,0 24.2079,7.76321 " />
            <polygon
               id="polygon201"
               style="fill:#5e5b43"
               gorn="0.4.1.0.0.0.4"
               points="24.2079,7.76321 31.93,0 31.93,31.9 24.2079,24.1368 " />
            <polygon
               id="polygon203"
               style="fill:#9a916c"
               gorn="0.4.1.0.0.0.5"
               points="7.87486,24.1368 24.2079,24.1368 31.93,31.9 0,31.9 " />
          </g>
        </g>
      </g>
    </g>
    <g
       transform="translate(560.4731,1334.05)"
       id="g77">
      <g
         id="g79">
        <g
           id="g205"
           gorn="0.4.2.0.0">
          <g
             id="g207"
             gorn="0.4.2.0.0.0">
            <rect
               height="31.9"
               x="0"
               y="0"
               style="fill:#8d8c8c"
               width="31.93"
               id="rect83" />
            <rect
               height="16.415199"
               id="connector2pin"
               x="7.7915301"
               y="7.7354398"
               style="fill:#8c8663"
               width="16.444201"
               gorn="0.4.2.0.0.0.1" />
            <polygon
               id="polygon212"
               style="fill:#b8af82"
               gorn="0.4.2.0.0.0.2"
               points="7.79153,24.1368 7.79153,6.97162 0,0 0,31.9 " />
            <polygon
               id="polygon214"
               style="fill:#80795b"
               gorn="0.4.2.0.0.0.3"
               points="7.90264,7.76321 0,0 31.93,0 24.2079,7.76321 " />
            <polygon
               id="polygon216"
               style="fill:#5e5b43"
               gorn="0.4.2.0.0.0.4"
               points="24.2079,7.76321 31.93,0 31.93,31.9 24.2079,24.1368 " />
            <polygon
               id="polygon218"
               style="fill:#9a916c"
               gorn="0.4.2.0.0.0.5"
               points="7.87486,24.1368 24.2079,24.1368 31.93,31.9 0,31.9 " />
          </g>
        </g>
      </g>
    </g>
    <g
       transform="translate(505.67084,34.05)"
       id="g90">
      <g
         id="g92">
        <g
           id="g220"
           gorn="0.4.3.0.0">
          <g
             id="g222"
             gorn="0.4.3.0.0.0">
            <rect
               height="31.9"
               id="connector14pin"
               x="0"
               y="0"
               style="fill:#8d8c8c"
               width="31.93"
               gorn="0.4.3.0.0.0.0" />
            <rect
               height="16.415199"
               id="connector1pin"
               x="7.7915301"
               y="7.7354398"
               style="fill:#8c8663"
               width="16.444201"
               gorn="0.4.3.0.0.0.1" />
            <polygon
               id="polygon227"
               style="fill:#b8af82"
               gorn="0.4.3.0.0.0.2"
               points="7.79153,6.97162 0,0 0,31.9 7.79153,24.1368 " />
            <polygon
               id="polygon229"
               style="fill:#80795b"
               gorn="0.4.3.0.0.0.3"
               points="0,0 31.93,0 24.2079,7.76321 7.90264,7.76321 " />
            <polygon
               id="polygon231"
               style="fill:#5e5b43"
               gorn="0.4.3.0.0.0.4"
               points="31.93,0 31.93,31.9 24.2079,24.1368 24.2079,7.76321 " />
            <polygon
               id="polygon233"
               style="fill:#9a916c"
               gorn="0.4.3.0.0.0.5"
               points="24.2079,24.1368 31.93,31.9 0,31.9 7.87486,24.1368 " />
          </g>
        </g>
      </g>
    </g>
    <g
       transform="translate(660.4731,1334.05)"
       id="g102">
      <g
         id="g104">
        <g
           id="g235"
           gorn="0.4.4.0.0">
          <g
             id="g237"
             gorn="0.4.4.0.0.0">
            <rect
               height="31.9"
               x="0"
               y="0"
               style="fill:#8d8c8c"
               width="31.93"
               id="rect108" />
            <rect
               height="16.415199"
               id="connector4pin"
               x="7.7915301"
               y="7.7354398"
               style="fill:#8c8663"
               width="16.444201"
               gorn="0.4.4.0.0.0.1" />
            <polygon
               id="polygon242"
               style="fill:#b8af82"
               gorn="0.4.4.0.0.0.2"
               points="7.79153,24.1368 7.79153,6.97162 0,0 0,31.9 " />
            <polygon
               id="polygon244"
               style="fill:#80795b"
               gorn="0.4.4.0.0.0.3"
               points="7.90264,7.76321 0,0 31.93,0 24.2079,7.76321 " />
            <polygon
               id="polygon246"
               style="fill:#5e5b43"
               gorn="0.4.4.0.0.0.4"
               points="24.2079,7.76321 31.93,0 31.93,31.9 24.2079,24.1368 " />
            <polygon
               id="polygon248"
               style="fill:#9a916c"
               gorn="0.4.4.0.0.0.5"
               points="7.87486,24.1368 24.2079,24.1368 31.93,31.9 0,31.9 " />
          </g>
        </g>
      </g>
    </g>
    <g
       transform="translate(605.67084,34.05)"
       id="g115">
      <g
         id="g117">
        <g
           id="g250"
           gorn="0.4.5.0.0">
          <g
             id="g252"
             gorn="0.4.5.0.0.0">
            <rect
               height="31.9"
               id="connector13pin"
               x="0"
               y="0"
               style="fill:#8d8c8c"
               width="31.93"
               gorn="0.4.5.0.0.0.0" />
            <rect
               height="16.415199"
               id="connector3pin"
               x="7.7915301"
               y="7.7354398"
               style="fill:#8c8663"
               width="16.444201"
               gorn="0.4.5.0.0.0.1" />
            <polygon
               id="polygon257"
               style="fill:#b8af82"
               gorn="0.4.5.0.0.0.2"
               points="7.79153,6.97162 0,0 0,31.9 7.79153,24.1368 " />
            <polygon
               id="polygon259"
               style="fill:#80795b"
               gorn="0.4.5.0.0.0.3"
               points="0,0 31.93,0 24.2079,7.76321 7.90264,7.76321 " />
            <polygon
               id="polygon261"
               style="fill:#5e5b43"
               gorn="0.4.5.0.0.0.4"
               points="31.93,0 31.93,31.9 24.2079,24.1368 24.2079,7.76321 " />
            <polygon
               id="polygon263"
               style="fill:#9a916c"
               gorn="0.4.5.0.0.0.5"
               points="24.2079,24.1368 31.93,31.9 0,31.9 7.87486,24.1368 " />
          </g>
        </g>
      </g>
    </g>
  </g>
</svg>
