<?xml version="1.0" encoding="UTF-8" standalone="no"?>
<!-- Generator: Adobe Illustrator 15.1.0, SVG Export Plug-In . SVG Version: 6.00 Build 0)  -->

<svg
   xmlns:dc="http://purl.org/dc/elements/1.1/"
   xmlns:cc="http://creativecommons.org/ns#"
   xmlns:rdf="http://www.w3.org/1999/02/22-rdf-syntax-ns#"
   xmlns:svg="http://www.w3.org/2000/svg"
   xmlns="http://www.w3.org/2000/svg"
   xmlns:sodipodi="http://sodipodi.sourceforge.net/DTD/sodipodi-0.dtd"
   xmlns:inkscape="http://www.inkscape.org/namespaces/inkscape"
   height="1.07354in"
   id="Ebene_1"
   x="0px"
   xml:space="preserve"
   y="0px"
   version="1.1"
   enable-background="new 0 0 68.763 77.295"
   viewBox="0 0 31.399526 77.295"
   width="0.43610469in"
   gorn="0"
   inkscape:version="0.91 r"
   sodipodi:docname="prefix_lm298_0000_afb635ae7448d3998c79922e514af171_1_icon.svg"><sodipodi:namedview
     pagecolor="#ffffff"
     bordercolor="#666666"
     borderopacity="1"
     objecttolerance="10"
     gridtolerance="10"
     guidetolerance="10"
     inkscape:pageopacity="0"
     inkscape:pageshadow="2"
     inkscape:window-width="1301"
     inkscape:window-height="744"
     id="namedview43"
     showgrid="false"
     fit-margin-top="0"
     fit-margin-left="0"
     fit-margin-right="0"
     fit-margin-bottom="0"
     inkscape:zoom="2.4425939"
     inkscape:cx="19.607212"
     inkscape:cy="48.309304"
     inkscape:window-x="65"
     inkscape:window-y="24"
     inkscape:window-maximized="1"
     inkscape:current-layer="g5" /><metadata
     id="metadata183"><rdf:RDF><cc:Work
         rdf:about=""><dc:format>image/svg+xml</dc:format><dc:type
           rdf:resource="http://purl.org/dc/dcmitype/StillImage" /><dc:title></dc:title></cc:Work></rdf:RDF></metadata><defs
     id="defs181" /><desc
     id="desc3"><referenceFile>MULTIWATT15.svg</referenceFile></desc><g
     id="g5"
     gorn="0.3"
     transform="translate(-18.695771,0)"><path
       id="path7"
       gorn="0.3.0"
       d="m 32.724726,7.901 c 0,1.754 0.747794,3.174 1.67283,3.174 0.925035,0 1.673743,-1.42 1.673743,-3.174 l 0,1.587 c 0,1.754 -0.748708,3.174 -1.673743,3.174 -0.925036,0 -1.67283,-1.42 -1.67283,-3.174 l 0,-1.587 z"
       inkscape:connector-curvature="0"
       style="fill:#e6e6e6" /><g
       id="g9"
       gorn="0.3.1"
       transform="matrix(0.45680764,0,0,1,18.683373,0)"><path
         id="path11"
         gorn="0.3.1.0"
         d="M 65.851,0 2.939,0 0.027,7.723 l 0,22.074 68.736,0 0,-22.074 L 65.851,0 Z M 34.4,12.662 c -2.025,0 -3.662,-1.42 -3.662,-3.174 0,-1.752 1.637,-3.174 3.662,-3.174 2.025,0 3.664,1.422 3.664,3.174 0,1.754 -1.639,3.174 -3.664,3.174 z"
         inkscape:connector-curvature="0"
         style="fill:#e6e6e6" /></g><g
       id="g13"
       gorn="0.3.2"
       transform="matrix(0.45680764,0,0,1,18.683373,0)"><path
         id="path15"
         gorn="0.3.2.0"
         d="m 65.851,3.793 -62.912,0 -2.912,7.725 0,22.074 68.736,0 0,-22.074 -2.912,-7.725 z M 34.4,12.662 c -2.025,0 -3.662,-1.42 -3.662,-3.174 0,-1.752 1.637,-3.174 3.662,-3.174 2.025,0 3.664,1.422 3.664,3.174 0,1.754 -1.639,3.174 -3.664,3.174 z"
         inkscape:connector-curvature="0"
         style="fill:#cccccc" /></g><rect
       height="3.8340001"
       id="rect17"
       x="18.695707"
       y="20.631001"
       width="31.39913"
       gorn="0.3.3"
       style="fill:#333333" /><rect
       height="21.76"
       id="rect19"
       x="18.695707"
       y="29.797001"
       width="31.39913"
       gorn="0.3.4" /><path
       id="path21"
       gorn="0.3.5"
       d="m 47.937791,40.42 c 0,-2.609 0.965234,-4.725 2.157502,-4.725 l 0,-11.23 -31.399586,0 0,11.23 0,0 c 1.191811,0 2.157959,2.115 2.157959,4.725 0,2.607 -0.965691,4.723 -2.157959,4.723 l 0,0 0,8.859 31.39913,0 0,-8.859 c -1.191812,0 -2.157046,-2.116 -2.157046,-4.723 z"
       inkscape:connector-curvature="0"
       style="fill:#1a1a1a" /><g
       id="g23"
       gorn="0.3.6"
       transform="translate(2.582566,0)"><g
         id="g55"
         gorn="0.3.6.0"><rect
           height="7.572"
           id="rect57"
           x="33.672001"
           y="51.556999"
           width="3.033"
           gorn="0.3.6.0.0"
           style="fill:#cccccc" /><rect
           height="3.1989999"
           id="rect59"
           x="33.672001"
           y="59.129002"
           width="3.033"
           gorn="0.3.6.0.1"
           style="fill:#e6e6e6" /><rect
           height="1.24"
           id="rect61"
           x="33.672001"
           y="51.556999"
           width="3.033"
           gorn="0.3.6.0.2"
           style="opacity:0.2" /><polygon
           id="polygon63"
           gorn="0.3.6.0.3"
           points="36.198,64.455 36.706,62.328 33.672,62.328 34.18,64.455 "
           style="fill:#e6e6e6" /></g><g
         id="g65"
         gorn="0.3.6.1"><rect
           height="7.572"
           id="rect67"
           x="26.472"
           y="51.556999"
           width="3.033"
           gorn="0.3.6.1.0"
           style="fill:#cccccc" /><rect
           height="3.1989999"
           id="rect69"
           x="26.472"
           y="59.129002"
           width="3.033"
           gorn="0.3.6.1.1"
           style="fill:#e6e6e6" /><rect
           height="1.24"
           id="rect71"
           x="26.472"
           y="51.556999"
           width="3.033"
           gorn="0.3.6.1.2"
           style="opacity:0.2" /><polygon
           id="polygon73"
           gorn="0.3.6.1.3"
           points="28.998,64.455 29.505,62.328 26.472,62.328 26.98,64.455 "
           style="fill:#e6e6e6" /></g></g><g
       id="g95"
       gorn="0.3.7"
       transform="translate(2.582566,0)"><g
         id="g127"
         gorn="0.3.7.0"><rect
           height="16.601999"
           id="rect129"
           x="37.314999"
           y="51.556999"
           width="3.033"
           gorn="0.3.7.0.0"
           style="fill:#cccccc" /><rect
           height="4.3540001"
           id="rect131"
           x="37.314999"
           y="51.5"
           width="3.033"
           gorn="0.3.7.0.1"
           style="opacity:0.2" /><rect
           height="7.0120001"
           id="rect133"
           x="37.314999"
           y="68.157997"
           width="3.033"
           gorn="0.3.7.0.2"
           style="fill:#e6e6e6" /><polygon
           id="polygon135"
           gorn="0.3.7.0.3"
           points="39.84,77.295 40.348,75.17 37.315,75.17 37.823,77.295 "
           style="fill:#e6e6e6" /></g><g
         id="g137"
         gorn="0.3.7.1"><rect
           height="16.601999"
           id="rect139"
           x="30.115"
           y="51.556999"
           width="3.033"
           gorn="0.3.7.1.0"
           style="fill:#cccccc" /><rect
           height="4.3540001"
           id="rect141"
           x="30.115"
           y="51.5"
           width="3.033"
           gorn="0.3.7.1.1"
           style="opacity:0.2" /><rect
           height="7.0120001"
           id="rect143"
           x="30.115"
           y="68.157997"
           width="3.033"
           gorn="0.3.7.1.2"
           style="fill:#e6e6e6" /><polygon
           id="polygon145"
           gorn="0.3.7.1.3"
           points="32.64,77.295 33.148,75.17 30.115,75.17 30.623,77.295 "
           style="fill:#e6e6e6" /></g><g
         id="g147"
         gorn="0.3.7.2"><rect
           height="16.601999"
           id="rect149"
           x="22.916"
           y="51.556999"
           width="3.033"
           gorn="0.3.7.2.0"
           style="fill:#cccccc" /><rect
           height="4.3540001"
           id="rect151"
           x="22.916"
           y="51.5"
           width="3.033"
           gorn="0.3.7.2.1"
           style="opacity:0.2" /><rect
           height="7.0120001"
           id="rect153"
           x="22.916"
           y="68.157997"
           width="3.033"
           gorn="0.3.7.2.2"
           style="fill:#e6e6e6" /><polygon
           id="polygon155"
           gorn="0.3.7.2.3"
           points="25.441,77.295 25.949,75.17 22.916,75.17 23.423,77.295 "
           style="fill:#e6e6e6" /></g></g></g><polygon
     id="polygon177"
     gorn="0.4"
     points="68.763,7.723 65.851,0 2.939,0 0.027,7.723 0.027,9.223 2.939,1.5 65.851,1.5 68.763,9.223 "
     transform="matrix(0.45680764,0,0,1,-0.01239789,0)"
     style="opacity:0.2;fill:#ffffff" /></svg>