<?xml version='1.0' encoding='UTF-8' standalone='no'?>
<!-- Created with Fritzing (http://www.fritzing.org/) -->
<svg xmlns="http://www.w3.org/2000/svg" width="0.42917in" x="0in" y="0in" baseProfile="tiny" viewBox="0 0 429.17 97.1"  version="1.2" height="0.0971in">
    <desc >
        <referenceFile >resistor_220.svg</referenceFile>
    </desc>
    <g id="breadboard" gorn="0.1" >
        <rect id="connector0pin" width="10" x="5" gorn="0.1.0" y="35.9"  fill="none" height="10"/>
        <rect id="connector1pin" width="10" x="414.17" gorn="0.1.1" y="35.9"  fill="none" height="10"/>
        <line id="connector0leg" stroke-linecap="round" y1="50.45" gorn="0.1.2" y2="50.45" x1="14.55" x2="29.1"  fill="none" stroke="#8C8C8C" stroke-width="29.1"/>
        <line id="connector1leg" stroke-linecap="round" y1="50.45" gorn="0.1.3" y2="50.45" x1="414.62" x2="400.07"  fill="none" stroke="#8C8C8C" stroke-width="29.1"/>
        <path d="M14.55,50.45l393.98,0"  fill="none" stroke="#8C8C8C" stroke-width="29.1"/>
        <path id="body" d="M142.33,6.88c-5,-2.3,-13.6,-4.1,-19.1,-4.1l-27.6,0c-5.5,0,-10,4.5,-10,10l0,74.39c0,5.51,4.5,10,10,10l27.6,0c5.5,0,14.1,-1.89,19.1,-4.1l1,-0.49c5,-2.3,13.6,-4.1,19.1,-4.1l99.8,0c5.51,0,14.09,1.89,19.09,4.1l1.01,0.49c5,2.3,13.58,4.1,19.1,4.1l27.6,0c5.52,0,10,-4.49,10,-10L339.03,12.78c0,-5.5,-4.48,-10,-10,-10l-27.6,0c-5.52,0,-14.1,1.9,-19.1,4.1l-1.01,0.5c-5,2.3,-13.58,4.1,-19.09,4.1l-99.8,0c-5.5,0,-14.1,-1.9,-19.1,-4.1L142.33,6.88z" gorn="0.1.5"  fill="#D9B477"/>
        <rect id="gold_band" width="9.76" x="305.82" gorn="0.1.6" y="2.69"  fill="#ad9f4e" height="94.38"/>
        <rect id="band_rd_multiplier" width="25.7" x="224.62" gorn="0.1.7" y="11.48"  fill="#8a3d06" height="76.9"/>
        <rect id="band_2_nd" width="25.7" x="173.23" gorn="0.1.8" y="11.48"  fill="#c40808" height="76.9"/>
        <path id="band_1_st" d="M147.62,8.88c-1.6,-0.5,-3.1,-1,-4.3,-1.6l-1,-0.5c-5,-2.29,-13.6,-4.1,-19.1,-4.1l-1.2,0l0,94.39l1.2,0c5.5,0,14.1,-1.89,19.1,-4.1l1,-0.49c1.2,-0.62,2.7,-1.11,4.3,-1.6L147.62,8.88z" gorn="0.1.9"  fill="#c40808"/>
        <path id="Shadow" d="M329.32,56.8L329.32,56.8c0,5.27,-1.81,9.71,-4.1,9.71l-26.7,0c-5.28,0,-13.58,-0.78,-18.51,-1.7L279,64.59c-4.79,-0.9,-13.18,-1.7,-18.52,-1.7L164,62.89c-5.3,0,-13.6,0.8,-18.5,1.7l-1,0.21c-4.8,0.91,-13.1,1.7,-18.5,1.7l-4.4,0l-13.9,0l-4.3,0c-5.3,0,-9.7,4.08,-9.7,8.96l0,3.43L93.7,81.1l0,2.4c0,5,4.4,8.96,9.7,8.96l22.5,0c5.3,0,13.6,-1.7,18.5,-3.71l1,-0.39c4.8,-1.96,13.2,-3.68,18.5,-3.68l96.48,0c5.27,0,13.57,1.72,18.53,3.69l1.03,0.39c4.79,2.01,13.12,3.71,18.52,3.71l30.9,0c5.29,0,9.71,-4.1,9.71,-8.96L339.07,76L339.07,62.49L339.07,36.88C335.22,38.38,329.32,42.58,329.32,56.8z" gorn="0.1.10"  opacity="0.3"/>
        <rect id="ShadowExtra" width="9.76" x="305.82" gorn="0.1.11" y="48.38"  opacity="0.4" height="43.79"/>
        <path id="ReflexRight" d="M274.32,15.08c3.19,0,6.82,-1.4,9.2,-2.4c2.8,-1.1,8.01,-2,13.42,-2l20.29,0c3.12,0,3.12,3.4,3.12,5.2c0,1.8,-0.21,5.3,-3.12,5.3l-42.5,0c-1.49,0,-3.2,-1.6,-3.2,-3.11C271.62,16.88,272.62,15.08,274.32,15.08z" gorn="0.1.12"  fill="#FFFFFF" opacity="0.25"/>
        <circle id="ReflexLeft" gorn="0.1.13" cx="97.22" cy="15.78"  fill="#FFFFFF" opacity="0.35" r="6"/>
        <rect id="Reflex_gold" width="9.76" x="305.82" gorn="0.1.14" y="5.88"  fill="#FFFF33" opacity="0.5" height="22.5"/>
        <rect id="Reflex_extra" width="9.76" x="305.82" gorn="0.1.15" y="10.88"  fill="#FFFFFF" opacity="0.5" height="10.4"/>
    </g>
</svg>
